<svg width="10" height="10" viewBox="0 0 10 10" fill="none" xmlns="http://www.w3.org/2000/svg">
<path fill-rule="evenodd" clip-rule="evenodd" d="M9.57531 1.30861C9.81938 1.06453 9.81938 0.668805 9.57531 0.424727C9.33123 0.180649 8.9355 0.180649 8.69142 0.424727L5.00003 4.11612L1.30864 0.424727C1.06456 0.180649 0.668835 0.180649 0.424757 0.424727C0.18068 0.668805 0.18068 1.06453 0.424757 1.30861L4.11615 5L0.424757 8.69139C0.18068 8.93547 0.18068 9.3312 0.424757 9.57528C0.668835 9.81935 1.06456 9.81935 1.30864 9.57528L5.00003 5.88389L8.69142 9.57528C8.9355 9.81935 9.33123 9.81935 9.57531 9.57528C9.81938 9.3312 9.81938 8.93547 9.57531 8.69139L5.88392 5L9.57531 1.30861Z" fill="white"/>
</svg>
